<svg width="594" height="569" viewBox="0 0 594 569" fill="none" xmlns="http://www.w3.org/2000/svg">
<path d="M594.003 474.17C594.003 526.542 549.675 569.003 495.004 569.003C440.327 569.003 396.005 526.54 396.005 474.17C396.005 421.795 440.327 379.338 495.004 379.338C549.676 379.338 594.003 421.795 594.003 474.17ZM470.255 248.938C470.255 294.767 431.472 331.918 383.627 331.918C335.783 331.918 297.001 294.767 297.001 248.936C297.001 203.111 335.783 165.956 383.627 165.956C431.472 165.956 470.255 203.112 470.255 248.938ZM297 426.75C297 505.313 230.513 569.003 148.497 569.003C66.4886 569.003 0 505.313 0 426.749C0 348.186 66.4886 284.501 148.497 284.501C230.513 284.501 297.001 348.186 297.001 426.749L297 426.75ZM247.508 118.545C247.508 184.015 192.1 237.091 123.754 237.091C55.4076 237.091 0 184.015 0 118.545C0 53.0756 55.4076 0 123.754 0C192.1 0 247.508 53.0756 247.508 118.545ZM594.003 71.125C594.003 110.406 560.756 142.247 519.747 142.247C478.74 142.247 445.499 110.406 445.499 71.1236C445.5 31.8423 478.74 0 519.75 0C560.757 0 594.004 31.8423 594.004 71.125H594.003ZM569.247 308.203C569.247 321.298 558.167 331.912 544.498 331.912C530.828 331.912 519.747 321.299 519.747 308.203C519.747 295.115 530.828 284.501 544.498 284.501C558.167 284.501 569.247 295.115 569.247 308.203ZM383.627 82.9801C383.627 102.624 367.008 118.545 346.501 118.545C326 118.545 309.379 102.624 309.379 82.9801C309.379 63.3429 325.998 47.4218 346.501 47.4218C367.007 47.4218 383.627 63.3415 383.627 82.9801Z" fill="#C0E0E4" fill-opacity="0.12"/>
</svg>
